Patient4_TMGait_0pt6_02_left_08_GRF.mot
version=1
nRows=26
nColumns=19
inDegrees=no
endheader
time	F1x	F1y	F1z	M1x	M1y	M1z	F2x	F2y	F2z	M2x	M2y	M2z	EC1x	EC1y	EC1z	EC2x	EC2y	EC2z
9.74	-3.0566	53.1591	-4.5877	-26.8957	0.45293	58.8848	1.9623	674.6868	-35.092	298.9525	34.7926	681.8936	-0.0592	0.0182	-0.0073	-0.0462	0.0165	0.9585
9.7522	-6.0521	54.0403	-4.7343	-26.7453	-0.06699	56.491	0.28415	672.3933	-34.7247	299.292	34.5352	676.8039	-0.0592	0.0182	-0.0073	-0.0462	0.0165	0.9585
9.7644	-8.5276	54.7999	-4.8494	-26.6113	-0.50572	54.3778	-0.80032	672.2862	-34.403	300.4273	34.1139	673.4011	-0.0592	0.0182	-0.0073	-0.0462	0.0165	0.9585
9.7766	-10.341	55.3135	-4.9058	-26.4699	-0.85402	52.5834	-1.2332	674.6128	-34.1793	302.3971	33.5873	672.059	-0.0592	0.0182	-0.0073	-0.0462	0.0165	0.9585
9.7889	-11.5408	55.4773	-4.9102	-26.2735	-1.117	51.0308	-1.098	679.1291	-34.103	305.0843	33.0507	672.6625	-0.0592	0.0182	-0.0073	-0.0462	0.0165	0.9585
9.8011	-12.2292	55.1869	-4.88	-25.9618	-1.3062	49.5439	-0.50887	685.2908	-34.1987	308.2722	32.5738	674.7772	-0.0592	0.0182	-0.0073	-0.0462	0.0165	0.9585
9.8133	-12.5708	54.3547	-4.8454	-25.4764	-1.4362	47.9403	0.41021	692.3625	-34.4708	311.6789	32.2003	677.7538	-0.0592	0.0182	-0.0073	-0.0462	0.0165	0.9585
9.8255	-12.6986	52.9065	-4.8241	-24.7686	-1.5249	46.0254	1.5586	699.5534	-34.8911	315.0005	31.9328	680.8644	-0.0592	0.0182	-0.0073	-0.0462	0.0165	0.9585
9.8377	-12.7266	50.7784	-4.828	-23.8026	-1.5862	43.6476	2.865	706.0819	-35.4367	317.9336	31.7652	683.3707	-0.0592	0.0182	-0.0073	-0.0462	0.0165	0.9585
9.8499	-12.7032	47.9135	-4.849	-22.553	-1.6366	40.6605	4.274	711.2206	-36.0446	320.1948	31.6458	684.573	-0.0592	0.0182	-0.0073	-0.0462	0.0165	0.9585
9.8621	-12.6577	44.254	-4.8776	-20.9988	-1.6845	36.9353	5.7629	714.3983	-36.659	321.5564	31.5193	683.9304	-0.0592	0.0182	-0.0073	-0.0462	0.0165	0.9585
9.8744	-12.5566	39.7492	-4.898	-19.124	-1.7253	32.3773	7.322	715.2492	-37.1994	321.8708	31.3055	681.1048	-0.0592	0.0182	-0.0073	-0.0462	0.0165	0.9585
9.8866	-12.3305	34.4064	-4.8973	-16.9308	-1.7337	26.9763	8.9193	713.6464	-37.6324	321.0842	30.981	676.0047	-0.0592	0.0182	-0.0073	-0.0462	0.0165	0.9585
9.8988	-11.8699	28.364	-4.8767	-14.4634	-1.6571	20.8821	10.5349	709.7775	-37.9363	319.2704	30.5319	668.8383	-0.0592	0.0182	-0.0073	-0.0462	0.0165	0.9585
9.911	-11.0526	22.0006	-4.8508	-11.8503	-1.4159	14.5386	12.1574	704.171	-38.1348	316.6486	29.9792	660.1313	-0.0592	0.0182	-0.0073	-0.0462	0.0165	0.9585
9.9232	-9.7526	16.0765	-4.8574	-9.3546	-0.90154	8.819	13.8142	697.6727	-38.2592	313.5733	29.3268	650.6923	-0.0592	0.0182	-0.0073	-0.0462	0.0165	0.9585
9.9354	-7.8747	11.8467	-4.9649	-7.4137	0.016301	5.1224	15.5499	691.297	-38.3666	310.4689	28.5969	641.4769	-0.0592	0.0182	-0.0073	-0.0462	0.0165	0.9585
9.9476	-5.3542	11.1655	-5.2747	-6.6743	1.4848	5.5161	17.4082	685.9676	-38.5035	307.7254	27.8061	633.34	-0.0592	0.0182	-0.0073	-0.0462	0.0165	0.9585
9.9599	-2.2094	16.4726	-5.916	-7.987	3.6415	12.7172	19.4435	682.2753	-38.6905	305.5932	26.9491	626.8173	-0.0592	0.0182	-0.0073	-0.0462	0.0165	0.9585
9.9721	1.3554	30.641	-7.0271	-12.3501	6.5502	29.9329	21.697	680.2713	-38.9018	304.093	25.9836	621.9536	-0.0592	0.0182	-0.0073	-0.0462	0.0165	0.9585
9.9843	4.8868	56.5926	-8.709	-20.7751	10.1279	60.4095	24.1826	679.3168	-39.0538	302.9552	24.8327	618.1913	-0.0592	0.0182	-0.0073	-0.0462	0.0165	0.9585
9.9965	7.6049	96.5701	-10.9492	-34.0292	14.0322	106.6592	26.8576	678.123	-38.9918	301.6334	23.385	614.4116	-0.0592	0.0182	-0.0073	-0.0462	0.0165	0.9585
10.0087	8.3881	150.9488	-13.5168	-52.2235	17.5493	169.1164	29.5905	674.813	-38.5085	299.3327	21.5216	608.9716	-0.0592	0.0182	-0.0073	-0.0462	0.0165	0.9585
10.0209	5.7933	216.5975	-15.809	-74.2419	19.4506	244.3272	32.1358	667.0748	-37.414	295.0775	19.1867	599.8405	-0.0592	0.0182	-0.0073	-0.0462	0.0165	0.9585
10.0331	-1.4303	285.2517	-16.6384	-97.1858	17.9768	323.1011	34.1915	652.5221	-35.6081	287.8679	16.4279	584.9189	-0.0592	0.0182	-0.0073	-0.0462	0.0165	0.9585
10.0454	-12.0062	345.4531	-14.2342	-117.0601	11.6591	392.5536	35.5198	629.2299	-33.1072	276.9114	13.3793	562.5074	-0.0592	0.0182	-0.0073	-0.0462	0.0165	0.9585
